<?xml version="1.0" encoding="utf-8"?>
<!-- Generator: Adobe Illustrator 19.1.0, SVG Export Plug-In . SVG Version: 6.00 Build 0)  -->
<svg version="1.1"
	 id="svg3087" xmlns:rdf="http://www.w3.org/1999/02/22-rdf-syntax-ns#" xmlns:dc="http://purl.org/dc/elements/1.1/" xmlns:cc="http://creativecommons.org/ns#" xmlns:svg="http://www.w3.org/2000/svg" xmlns:sodipodi="http://sodipodi.sourceforge.net/DTD/sodipodi-0.dtd" xmlns:inkscape="http://www.inkscape.org/namespaces/inkscape" inkscape:output_extension="org.inkscape.output.svg.inkscape" sodipodi:docname="logo-uob.svg" inkscape:version="0.46" sodipodi:version="0.32"
	 xmlns="http://www.w3.org/2000/svg" xmlns:xlink="http://www.w3.org/1999/xlink" x="0px" y="0px" viewBox="-207 203.3 542.8 157"
	 style="enable-background:new -207 203.3 542.8 157;" xml:space="preserve">
<style type="text/css">
	.st0{fill:#FFFFFF;}
	.st1{fill:#BF2F38;}
</style>
<sodipodi:namedview  guidetolerance="10.0" inkscape:zoom="1.00369" inkscape:cy="13.187649" inkscape:cx="271" showgrid="false" pagecolor="#ffffff" objecttolerance="10.0" bordercolor="#666666" borderopacity="1.0" id="base" gridtolerance="10.0" inkscape:current-layer="g3096" inkscape:window-y="-4" inkscape:window-x="-4" inkscape:pageshadow="2" inkscape:window-height="696" inkscape:pageopacity="0.0" inkscape:window-width="1024">
	</sodipodi:namedview>
<defs>
	
	
		<inkscape:perspective  inkscape:vp_z="542 : 82 : 1" inkscape:vp_y="0 : 1000 : 0" sodipodi:type="inkscape:persp3d" inkscape:vp_x="0 : 82 : 1" id="perspective3601" inkscape:persp3d-origin="271 : 54.666667 : 1">
		</inkscape:perspective>
</defs>
<title  id="title3089">Bristol University Logo</title>
<g id="g3091" transform="translate(-16.9375,-333.76838)">
	<g id="g3096">
		<g id="g4202">
			<g id="g3098" transform="translate(17.933824,-296.90442)">
				<path id="path3100" class="st0" d="M-13.8,956.5h10c10.8,0,16.3,7.3,16.3,14.4c0,7.2-3.5,14.8-15.7,14.8
					c-7.8,0-10.6-2.5-10.6-9.5V956.5z M-21.5,978.9c0,5.8-1.5,7.6-9.1,7.6h-2.1v1.8H1.2c14.9,0,20-10.3,20-17.6
					c0-7.2-5.1-12.9-13.8-15.5v-0.2c6.2-1.1,10.6-6,10.6-11.3c0-4.4-1.9-7.6-5.6-10.3c-3.3-2.4-10.5-3.6-18.6-3.6
					c-1.8,0-8.8,0.1-13.9,0.3c-2.7,0.1-9.1,0.5-11.7,0.5v1.8h3.2c6.5,0,7.1,2.8,7.1,8.1V978.9z M-13.8,931.9
					c2.3-0.1,6.1-0.3,8.2-0.3c11.4,0,15.3,5.9,15.3,12.4c0,7.2-4.4,10.7-13.3,10.7h-10.1V931.9"/>
			</g>
			<g id="g3102" transform="translate(17.933824,-296.90442)">
				<path id="path3104" class="st0" d="M46.5,962.4c-2.1,0-3.5,0.1-5.7-0.2v-30.4c1.7-0.2,2.9-0.2,4.6-0.2
					c14.3,0,18.2,6.7,18.2,15.3C63.6,958,56.8,962.4,46.5,962.4z M115,932.5v-1.8H92.5v1.8c5.2,0.3,6.9,1.7,6.9,6.7v39.5
					c0,6-1.1,7.6-6.4,7.9c-7.1-0.4-10.1-3.1-15.1-8.2l-7.3-7.3c-4.3-4.4-7.1-6.9-10.6-9.6c7.6-2.2,12.3-8.1,12.3-15
					c0-9.5-7.7-16.5-24.8-16.5c-6,0-7.9,0.1-11.7,0.3c-3.8,0.2-9.4,0.5-11.7,0.5v1.8h2c5.4,0,6.9,1.7,6.9,7.4v39
					c0,6.2-1.9,7.7-7.4,7.7h-1.6v1.8h26.2v-1.8h-2.1c-5.2,0-7.4-1.4-7.4-6.9v-15.7c1.5,0.1,2.7,0.2,4.7,0.2c2.5,0,4-0.1,6.3-0.2
					c2.2,1.5,5.5,4.2,9.5,8.2l6.1,6.1c8,8,11.4,10.5,26.5,10h21v-1.8c-6.4,0-7.9-1.9-7.9-7.3V940C107.1,933.8,109.1,932.5,115,932.5
					"/>
			</g>
			<g id="g3106" transform="translate(17.933824,-296.90442)">
				<path id="path3108" class="st0" d="M121.3,974.2c1.9,8.2,8.4,13.1,15.7,13.1c6.2,0,12.8-3.6,12.8-10.9
					c0-13.3-29.7-17.4-29.7-33.6c0-7.7,7-13.4,16.5-13.4c7.8,0,9.4,2.3,12.6,2.3c0.7,0,1.1-0.2,1.7-0.9h1.5l1.6,11.8h-1.6
					c-2.6-6.7-8.5-10.9-14.9-10.9c-6.1,0-10.4,3.5-10.4,8.7c0,13.2,29.7,16.7,29.7,33.7c0,9.1-8.1,15.8-18.9,15.8
					c-5.1,0-11.6-2.5-12.9-2.5c-0.8,0-1.5,0.5-1.9,1h-1.6l-1.9-14.1H121.3"/>
			</g>
			<g id="g3110" transform="translate(17.933824,-296.90442)">
				<path id="path3112" class="st0" d="M192.3,979.8c0,5,1.7,6.8,7.3,6.8h3.4v1.8h-29.2v-1.8h3.4c5.6,0,7.3-1.8,7.3-6.8V934h-16.1
					c-3.7,0-5.4,2.1-6.8,10.3h-1.7l1.5-15h1.8c0.1,0.6,0.5,0.9,1,1.1c0.6,0.2,1.2,0.3,1.9,0.3h44.5c1.3,0,2.7-0.3,2.9-1.4h1.8
					l1.5,15h-1.7c-1.4-8.2-3.1-10.3-6.8-10.3h-16.1V979.8"/>
			</g>
			<g id="g3114" transform="translate(17.933824,-296.90442)">
				<path id="path3116" class="st0" d="M284.7,957.9c0-16.7-15-28.6-32.5-28.6c-19.7,0-33.9,13.1-33.9,31.5c0,17.3,15.3,29,33.4,29
					C269.7,989.8,284.7,976.6,284.7,957.9z M276,961c0,13.1-7.2,26.5-22.3,26.5c-14.9,0-26.7-12.2-26.7-29.5
					c0-11.1,6.5-26.3,22.8-26.3C265,931.6,276,943.8,276,961"/>
			</g>
			<g id="g3118" transform="translate(17.933824,-296.90442)">
				<path id="path3120" class="st0" d="M327.7,988.3h-41.4v-1.8h3.1c4.3,0,5.8-1.4,5.8-6.1v-41c0-4.9-1.5-6.9-7.3-6.9h-1.3v-1.8
					h27.3v1.8h-3.4c-6,0-7.6,0.6-7.6,6.4v42.7c0,2.5,1,3.4,3.7,3.4h13.6c5.5,0,7.1-2.1,13-10.2h1.7L327.7,988.3"/>
			</g>
			<g id="g3122" transform="translate(17.933824,-296.90442)">
				<path id="path3124" class="st1" d="M-105,904.2c-0.1-5.4-1.9-16.4-14.8-22.7c13.1,4.2,19.4,15.2,20,23.5
					c13.8,2.7,26,9.2,45.8,2.4l0.1,0c0,0-26.1,0.2-37-7.6c5.6,0.2,12.1-1.1,14.2-4.3c2.3-3.4,2.5-6.9,8.1-7.1
					c3.1-0.1,13.8,0.7,14.9-14.9c-3.4,5.7-7.1,8.1-12.6,6.7c-3.5-0.9-10-3.6-14.7,1.9c-3.8,4.6-7.9,6.9-14.5,6.2
					c2.6-3.5,41.7-54.3,41.7-54.3s-50,40.2-52.8,42.5c-0.5-7.3,1.7-10,4.6-13.2c2.4-2.6,6.6-6.2,3.3-13.7c-2.7-6.1-2.3-9.8,5-15.6
					c-5.8,0.4-14.8,4.4-13.7,15.1c0.6,6.5-4,7-5.6,8c-4.4,2.4-4.9,9.4-5.1,14.9c-0.5-1.8-6.8-29-9.1-37.8c0,0,0,73.3,0,73.3h0.2
					C-118.5,904-111.5,903.5-105,904.2"/>
			</g>
			<g id="g3126" transform="translate(17.933824,-296.90442)">
				<path id="path3128" class="st0" d="M19.5,864.6v1.3c-4.6,0.1-6.3,1.9-6.3,6.3v18.5c0,8.5-5.4,17.6-20.3,17.6
					c-13.1,0-19.8-7.5-19.8-17.3v-20.1c0-4.4-1.2-5.1-5.9-5.2v-1.3h17.6v1.3h-0.6c-3.8,0-5.4,1-5.4,5V890c0,9.3,5.4,14.8,15.7,14.8
					c7.8,0,15.7-3.2,15.7-14.9v-16c0-6.6-1-7.8-6.7-8v-1.3H19.5"/>
			</g>
			<g id="g3130" transform="translate(17.933824,-296.90442)">
				<path id="path3132" class="st0" d="M28.5,901.4c0,3.8,0.9,4.7,4.6,4.7v1.3H19.3v-1.3c3,0,4.6-1.6,4.6-4.3v-14.4
					c0-2.5-0.3-3-2.1-3.4l-2.3-0.5v-1.1l7.9-2.9h1.1v5.4c4.6-2.9,8.4-5.4,11.8-5.4c4.7,0,7.3,3.4,7.3,10.3c0,9.1-0.5,10.9-0.6,13.6
					c-0.1,1.9,1,2.7,3.8,2.7h1.5v1.3H37.7v-1.3c2-0.1,3.2-0.6,3.9-1.3c1.3-1.3,1.4-6.3,1.4-15.5c0-5.5-2.7-7.2-5.4-7.2
					c-2.2,0-5.6,1.9-9.1,4.4V901.4"/>
			</g>
			<g id="g3134" transform="translate(17.933824,-296.90442)">
				<path id="path3136" class="st0" d="M62.8,863.6c1.6,0,3,1.2,3,2.6c0,1.4-1.4,2.6-3,2.6c-1.6,0-3-1.2-3-2.6
					C59.9,864.8,61.2,863.6,62.8,863.6z M65.6,902.1c0,2.4,1.3,3.9,4.9,3.9v1.3H55.3v-1.3c4.2,0,5.7-1.4,5.7-5v-13.8
					c0-2.7-0.3-3-2.1-3.4l-3.2-0.6v-1.1l8.9-3.1h1V902.1"/>
			</g>
			<g id="g3138" transform="translate(17.933824,-296.90442)">
				<path id="path3140" class="st0" d="M86.3,908l-10-22.8c-1-2.4-1.9-3.2-3-3.4l-2.1-0.3v-1.2h14v1.2c-4.2,0.1-5.5,0.7-3.9,3.9
					l7.3,17.1l7-15.9c1.2-2.8,0.6-4.8-4.4-5.2v-1.2h11.9v1.2c-2.6,0.5-4.1,2-5.4,5L88.3,908H86.3"/>
			</g>
			<g id="g3142" transform="translate(17.933824,-296.90442)">
				<path id="path3144" class="st0" d="M128.8,889.9v-1.6c-2.3-2.3-2.1-8.9-11.3-8.9c-8.4,0-13.3,7.4-13.3,14.7
					c0,8,5.2,14.1,11.9,14.1c5,0,9.3-3.4,12.2-7.1l-0.8-0.8c-2.6,3.1-5.3,4.5-8.7,4.5c-5.4,0-10.4-4.8-10.4-11.9
					c0-0.9,0.1-1.9,0.3-2.9H128.8z M108.9,888.1c1.6-6.4,5-7.4,7.3-7.4c3.3,0,6,3,6.8,7.4H108.9"/>
			</g>
			<g id="g3146" transform="translate(17.933824,-296.90442)">
				<path id="path3148" class="st0" d="M142,902.3c0,2.8,1,3.7,4.5,3.7h2.6v1.3h-16.3v-1.3c3.5-0.1,4.6-1.5,4.6-5.2V885l-4.6-1.6
					v-1.2l7.8-2.7h1.4v7.3h0.1c3.4-5.6,4.3-6.9,6.5-6.9c0.8,0,1,0.1,2.3,0.6c0.7,0.3,1.9,0.5,3.6,1l-1.7,4.1c-1-0.1-2.3-0.5-3.6-1.1
					c-0.8-0.3-1.6-0.7-2.4-0.7c-1.2,0-2,0.8-2.7,1.8c-0.9,1.2-1.7,2.4-2.2,3.4V902.3"/>
			</g>
			<g id="g3150" transform="translate(17.933824,-296.90442)">
				<path id="path3152" class="st0" d="M159.3,900.4c0.8,4.1,3.4,6.5,6.5,6.5c2.7,0,4.9-2.1,4.9-4.5c0-1.4-0.3-2.3-2.2-4.2
					c-4.9-4.9-10.3-5.4-10.3-11.1c0-4.5,3.6-7.7,8.8-7.7c1.9,0,3.8,0.4,5.5,1.1l0.1,6.3h-1.2c-0.5-3.5-2.8-5.7-5.5-5.7
					c-2.3,0-4.2,1.6-4.2,3.8c0,6,12.8,7.1,12.8,15.5c0,4.5-3.7,7.8-8.5,7.8c-1.3,0-2.3-0.2-3-0.5c-0.8-0.2-1.3-0.4-1.9-0.4
					c-0.4,0-0.8,0.3-1.2,0.8h-1l-0.8-7.7H159.3"/>
			</g>
			<g id="g3154" transform="translate(17.933824,-296.90442)">
				<path id="path3156" class="st0" d="M186.3,863.6c1.7,0,3,1.2,3,2.6c0,1.4-1.4,2.6-3,2.6c-1.6,0-2.9-1.2-2.9-2.6
					C183.3,864.8,184.6,863.6,186.3,863.6z M189.1,902.1c0,2.4,1.3,3.9,4.9,3.9v1.3h-15.2v-1.3c4.2,0,5.7-1.4,5.7-5v-13.8
					c0-2.7-0.3-3-2.1-3.4l-3.2-0.6v-1.1l8.9-3.1h1V902.1"/>
			</g>
			<g id="g3158" transform="translate(17.933824,-296.90442)">
				<path id="path3160" class="st0" d="M213.6,880.2l-1.1,3h-8.7v16c0,4.3,3.1,5.8,4.5,5.8c1.5,0,2.9-1.2,4.2-3.4l1.1,1
					c-1.6,3.6-4.3,5.6-7.5,5.6c-4.1,0-6.9-3.4-6.9-8v-17H196v-1.1c2.7-1.3,5-4.5,6.6-8.7h1.2v6.8H213.6"/>
			</g>
			<g id="g3162" transform="translate(17.933824,-296.90442)">
				<path id="path3164" class="st0" d="M240.8,887.8c2.1-5.2,0.8-6.3-3.3-6.4v-1.2h11.4v1.2c-2.8,0.3-4.4,2.3-5.7,5.5L231.5,916
					c-2.1,5.1-3.6,7.3-6,7.3c-1.7,0-2.8-1-2.8-2.4c0-2.8,4-2.1,5.7-3.8c0.8-0.8,1.8-2.5,2.3-3.9l2.1-5.1l-10.6-22.6
					c-1.3-2.8-2.5-4-5.4-4v-1.2h13.8v1.2c-4.2,0.1-4.7,1.3-3.3,4.2l7.8,16.8L240.8,887.8"/>
			</g>
			<g id="g3166" transform="translate(17.933824,-296.90442)">
				<path id="path3168" class="st0" d="M264.3,894c0,8,6.5,14.2,15,14.2c8.2,0,14.6-6.3,14.6-14.4c0-8.2-6.4-14.4-14.8-14.4
					C272,879.4,264.3,884.5,264.3,894z M269.4,891.6c0-5.9,4.2-10.6,8.7-10.6c5.8,0,10.6,6.7,10.6,14.5c0,6.9-4.6,11-8.7,11
					C274.2,906.5,269.4,899.9,269.4,891.6"/>
			</g>
			<g id="g3170" transform="translate(17.933824,-296.90442)">
				<path id="path3172" class="st0" d="M313.8,883.2h-7.4V902c0,3.2,1.2,4.1,5.1,4.1h2.6v1.3h-17v-1.3c4,0,4.7-0.9,4.7-4.7v-18.1
					h-5.1V882c1.9-0.4,3.6-1,5.1-1.9c0-5.7,1.2-10,5.3-14.1c3.4-3.4,6.6-4.9,9.8-4.9c3.8,0,7.1,2.2,7.1,3.2c0,0.5-1.3,3.3-1.9,3.3
					c-1,0-3.5-3.4-8-3.4c-4.9,0-7.6,3.9-7.6,10.6v5.2h6.9L313.8,883.2"/>
			</g>
			<g id="g3174" transform="translate(17.933824,-296.90442)">
				<path id="path3176" class="st1" d="M-154.1,873.7c-0.6-3-0.3-9.1,2.7-15c-11,8.3-11.1,15-11.1,15S-160.4,872.1-154.1,873.7z
					 M-159.2,855.6c0,0-13.3,1.9-17.1,2.3c-2.6,1.6-5.7,5.9-5.7,5.9s-3.1,0.5-9.4,1.6c-4.3,2.8-6.9,9.4-1.6,14.8
					c-1.7-0.4-1.7-0.4-4.2-0.8c-5.3,3.4-2.8,9.7,8.2,7.5c-3.1-0.1-4.7-1.6-4.6-3.6c-0.1-2.2,4.1-4.9,9.3-3.5
					c-4.9-9.2,0.5-12.9,0.5-12.9s-2.9,7.6,3.4,13.9c0.6-0.9,2.4-3.5,7.7-3.6c5.3-0.1,8.6,2.5,8.6,5.5c0.1,2.6-3.3,5.4-7.6,5.4
					l-0.1-6.3c0,0-1.4,0.5-1.8,1.1c0,0.3,0,5.3,0,5.3c-1.7,0-5.2-0.7-7-3.6c-1.4-0.1-9.3-1.3-9.3-1.3l0.4,2.1c0,0,2.8,0.5,3.3,3.2
					c0.6,3.3,2.6,6.4,4.3,7.7c3.3-0.4,8.7-4.5,18.8-4.4c-9.2,1.3-18.6,11.1-32,7.4c21.4,7.3,23.6-8.9,50.4-3.8
					c-4.2-2.5-10.4-3.3-10.4-3.3s3.3-3.6,3.5-9.1c0.4,0,1-0.1,2.1-0.2c0.4-1.8,0.6-3.6,0.6-3.6s-5.8,0-10.7,0
					C-171.6,866.9-159.2,855.6-159.2,855.6z M-189,855.4c3.4,0.2,7.5-1.9,7.7-2.1c0,0-1.4,3.6,1.8,3.4c3.5-0.2,7.4-2,8-2.3v-4.6
					c-0.3,0.2-3.7,2.6-7.5,3.5c-1.4,0.3-0.9-0.9-0.8-1.6c0.1-0.7,0.2-1.3-2.3-0.3c-10.2,4.3-10.8,1.3-10.8,1
					C-193.3,852.8-193.1,855.1-189,855.4z M-134.8,834c0,0,0,72.2,0,73.3c-29.5-11.6-41.8,10.9-73.2,0c0,0.3,0-73.3,0-73.3h14.9v7.9
					h8.6V834h8.4v7.9h8.5l0-7.9h8.5v7.9h9.2V834H-134.8"/>
			</g>
			<g id="g3178" transform="translate(17.933824,-296.90442)">
				<path id="path3180" class="st1" d="M-106.6,933.8c0,0-0.3-0.2,0.3-0.7c0.1-0.1,0.2,0.1,0.6,0.1c0.5,0,0.8-0.2,1.2-0.7
					c0.7-0.8-0.7-1.1-1.2-0.7c-0.5,0.4-0.8,0.8-1.3,1.2C-106.9,933-107.6,933.6-106.6,933.8z M-81.4,970.8c-1.2,1-4.8,2.8-5.7,3.2
					c-0.9,0.4-1.2,0.7-1.9,2c-0.8,1.6-1.6,4.5-1.4,4.7c2.2-0.4,3.8-2.2,3.8-2.2s0-0.5-0.5-1.2c-0.4-0.6,0.4-1.3,0.9-0.9
					c0.4,0.3,0.9,0.4,1.2,0.1c0.3-0.3,7.3-4.7,7.6-5.2c-1.4-1.4-2.5-2.8-2.5-2.8S-80.2,969.9-81.4,970.8z M-108.6,951.4
					c-3-1.2-3.6-2-4.2-2.3c-0.5-0.2-2.5,0.7-2.9,1.5c-0.9,2.4-3,6.3-3.3,6.8c-0.2,0.3-0.3,0.6-0.3,1c0,0.4,0.2,1.9,0.1,2.3
					c0,0.4,0,0.8,0.2,1.2c0.1,0.4,0.3,1.9,1.1,3.4c1.7-1.7,2-4.3,1.9-3.8c0,0,0.6-0.9-0.8-1.4c-0.4-0.1-0.3-1.1,0.1-1.3
					c0.5-0.2,0.8-0.3,1-1.2c0.2-0.9,1.2-4.2,1.5-4.9c0-0.1,0.1-0.3,0.3-0.3c0.3-0.1,0.6-0.2,0.8-0.3c0.1,0,0.4,0.1,0.5,0.2
					c0.5,0.5,2.9,2.5,2.9,2.5s1.1-0.1,1.8-0.4C-108.3,953.9-108.5,952.2-108.6,951.4z M-111.6,937.4c0,0-1,1.3,0.1,1.6
					c0,0.4,0.2,1.1,0.3,1.5c0.2,0.5,0.5,0.3,0.9-0.1c0.4-0.4,1-1.2,1.4-1.7c0.4-0.4,1.8-0.3,1.2,0.6c-0.4,0.6-0.7,0.7-1.1,0.8
					c-0.4,0.1-0.5-0.2-0.9,0.3c-0.4,0.6-0.9,1-0.1,1c0.4,0,1.2,0.4,1.7,0.3c0.5-0.1,0.5-0.4,0.6-0.8c0.1-0.4,0-0.7,0.5-1
					c0.6-0.4,1.6-1.2,1.9-1.5c0.3-0.3,0.7-0.3,1.2-0.3c0.4,0,2.5,0.3,3.7-1.6c0.9-1.3,1-3.1,0.6-4.6c0.6,0.6,1.4,2.4,1,4.1
					c-0.7,3.1-2.2,3.2-3.8,3.6c-0.6,0.9-2.3,3.2-3.1,7.4c-0.4,0.2-3.5,3.2-0.9,8.1c-0.7,0.2-2.6,1.1-3.8,1.3
					c-0.8,0.2-1.4,0.2-1.7,0.6c-0.4,0.4-1.2,1.8-0.7,2.5c0.3,0.5,2.2,4.8,2.4,6.1c0.2,1.3,0.6,1.6,1.1,2.1c0.5,0.5,0.9,0.5,1.6,1
					c0.8,0.6,1.4,1.6,2.1,2.1c0.7,0.6,1.6,0.9,2.2,0.8c-0.1-2.2-0.6-4.3-1.3-5c-0.7-0.7-1.6,0.3-1.8,0.4c-0.2,0.1-0.5-0.2-0.6-0.7
					c-0.1-0.6,0.4-1.1-0.1-1.9c-1-1.5-1.9-3.1-2-3.4c-0.7-1.4,0.5-1.7,0.8-1.6c0.7,0.2,4.8,0.7,5.5,0.8c0.6,0.1,1,0.2,1.3-0.2
					c0.9-1,1.4-1.7,1.9-2.7c0.9,0.7,0.3,2,0,3.6c0.3,0.2,6.3,3.3,14.5,1.1c3.4-0.9,3.1-0.2,3.4,0.4c2,3.9,3.4,5.4,5.8,7.3
					c0.7,0.6,1.2,1.5,1.5,2c0.3,0.5,0.4,1.5,0.1,2.1c-0.3,0.8-2.2,4.1-2.5,4.5c-0.6,0.9-1.4,1.6-2.1,2c-2.1,1.1-2.6,2.1-2.8,2.9
					c0.5,0,5.4,0,5.4,0s0.1-0.3,0.1-0.9c-0.1-0.9,0.8-1.1,1-1.2c0.3-0.1,0.7,0.2,1.2-0.8c0.8-1.9,3.9-7.2,4.2-7.7
					c0.3-0.5,1.2-1.8,0.3-2.3c-1.8-1.1-2.9-2.8-3.2-4.8c-0.1-0.8-0.1-2.1,1.7-4.2c3.8-4.7,1-14.3-7.4-14.1
					c-4.7,0.1-7.4-0.3-10.5-0.9c-1.1-0.2-1.3-0.8-1.1-1.5c0.3-0.7,0.5-2.1,0.5-2.7c-0.8-0.7-2.1-1.2-2.7-1.4c-0.6-0.2-1-0.7-0.3-0.8
					c0.7,0,3.1,0.2,3.1,0.2s0.1-1.3-0.3-3.3c-1.1-0.5-2.4-0.9-3.8-1c-0.4,0-0.7-0.5,0.2-0.6c1.2-0.2,2.4,0,3.3,0
					c0.1-0.1-0.4-2.6-1.3-3.6c-0.6-0.2-0.9-0.3-3.1-0.5c-0.7-0.1-0.8-0.3-0.3-0.5c0.6-0.2,1.5-0.4,2.7-0.3c-0.5-0.6-3.5-6.3-9.9-4.6
					c0.7,0.9,1.1,1.3,1.3,1.9c0.2,0.5-0.4,0.7-0.9,0.2c-2-2.1-3.1-2.1-4.4-2.3c0.9,0.8,1.2,1.6,1.5,2.5c-1.5,1-3.5,3.5-3.8,4
					c-0.6,0.9,0.2,1.4,0.2,1.4L-111.6,937.4z M-70.3,923.2c-6.5,2.3-5.6,9.3-3.8,12c2.3,3.5,4.3,3.6,5.7,7.8
					c1.1,3.2-0.9,4.9-2.9,5.7c3.5,2.1,7-0.1,8.3-2.2c2.3-3.1-0.3-7.2,2.2-9.3c0.7-0.6,1.8-1,3.3-1c-1.5-2.2-5.1-1.9-6.5,0.1
					c-1-2.3-3.8-4.4-2.8-8c0.7-2.4,4.4-3.3,5.8-1.3c0.8,1.1,0.9,3.2-1.4,4.2c1.4-0.1,4.1-2.6,2.3-5.9c-1.3-2.3-3.5-2.5-5.2-2.5
					c-3.2,0-8.6,3.7-5.2,11.6C-72.5,932.6-75.7,926.5-70.3,923.2z M-54,914.9c0-1.2,0,73.4,0,73.4c-40.6,9.9-41.8-11.7-73.2,0
					c0,1,0-73.4,0-73.4C-98.3,902.8-87,925.8-54,914.9"/>
			</g>
			<g id="g3182" transform="translate(17.933824,-296.90442)">
				<path id="path3184" class="st1" d="M-181.4,956.8c0,0-1.3,0.8,0.3,4.4c1.6,3.5,3.6,6.8,0.1,10.7c2,0,6.3-2.6,1.7-10.3
					C-180.3,959.7-181.4,958.5-181.4,956.8z M-185.7,958.5c1.1-0.1,1.2-1.4,1-2.1c-0.2-0.8-1.6-0.9-1.9,0.1c-0.3,1,0,2,0,2
					c0.3,1,1.4,1.3,1.5,1.2C-185.8,959.1-185.6,958.8-185.7,958.5z M-184.7,963.1c-0.3,3.1-2,3.6-2,3.6c-3.1-1.4-4.8,2.5-2.2,3.6
					c3.3,1.5,5.3-2.8,5.5-3.6c0.6-2.3,0.6-3.8,0.4-7.5c-0.2-3.1,0.6-3.6,1.1-3.7c0.5-0.1,1.6-0.1,2.6,3.1c1.1,3.2,3.4,3.7,3.4,3.7
					s-3.3-5.4,1.3-10.4c2.2-2.3,6.5-3.6,5.7-6.9c0,0-0.7,1.2-2,1.5c-1.3,0.3-3.9,0.7-3.9,0.7s6.1-2.9,7.3-6.2c0,0,1.9,3.2-0.6,7.9
					c0,0,2.4-0.9,5.1,0.3c6.7,3,6,12.5-2.5,14.8c-12,3.2-7.7,12.5-0.8,13.1c-0.7-0.5-0.9-3.3,0.3-4.9c0.6-0.5,1.7-1.6,2.4,0.7
					c1.2,4,4.7,4.4,6.4,3.9c-0.4-0.4-1.2-1.6-1.1-2.3c0.2-1.4,2,0.1,2.6,0.2c4.7,1.3,7.3,0.2,7.5-0.5c-1.1-0.2-0.9-0.1-1.5-0.3
					c-0.6-0.2-1.8-1,0.4-1.5c4.2-1,6.5-5.3,3.7-8.6c-2.6-3.2-5.9-2.7-7-2.3c4.5,1,4.8,4.6,2.5,6.5c-2,1.5-7,2.1-8.7-1.2
					c-1.1,0.8-1.5,2-1.3,3.6c-0.5-0.2-2.4-2.9,0.5-5.1c13.1-8.4,11-22.6-0.1-28.5l-0.1-0.1c-10.1-5.8-18.9-0.5-18.9-0.5
					c6.2-6.2,17-2.5,18.5-1.8c0,0-1.2-1.1-1.9-2.1c-0.9-1.3-0.8-2.5-0.8-2.5c-4.3,2.4-5.4-1.3-5.4-1.3s-3.7,3.3-6.1,0.6
					c-2.1-2.4,1.3-5.6,1.3-5.6c-21.6,7.1-17.5,19.3-17.5,19.3s-3.1,2.9-3.8,9.8c-0.8,7.9,3.1,13.5,8,11.9
					C-185.5,964.3-184.9,963.8-184.7,963.1L-184.7,963.1z M-134.8,914.9c0,0,0,74.4,0,73.4c-31.4-11.7-32.6,9.9-73.2,0
					c0,0,0-74.6,0-73.4C-175,925.8-163.7,902.8-134.8,914.9"/>
			</g>
		</g>
	</g>
</g>
</svg>
